<svg xmlns="http://www.w3.org/2000/svg" xmlns:xlink="http://www.w3.org/1999/xlink" style="vertical-align:-4.695ex;margin-bottom:-.185ex" width="43.642ex" height="10.884ex" viewBox="0 -2585.3 18790 4686.3"><defs><path id="l" stroke-width="1" d="M132-11q-34 0-34 33v11l13 28q75 158 109 273l8 24h-32q-38 0-54-3t-39-19q-11-7-22-18t-19-21-9-12q-2-1-15-1-19 0-19 10 0 6 19 35t55 62 71 38q7 2 225 2 160 0 164-1 20-7 20-28 0-31-32-42-6-2-69-2h-64l-3-17q-12-72-12-119 0-52 9-93t19-64 10-28q0-17-14-32t-36-15q-11 0-18 3t-16 24-16 60q-1 9-1 44 0 49 9 105t18 92 10 40h-98l-1-4q0-3-19-79t-43-161-31-97q-11-28-43-28z"/><path id="a" stroke-width="1" d="M23 287q1 3 2 8t5 22 10 31 15 33 20 30 26 22 33 9q75 0 96-64l10 9q62 55 118 55 65 0 102-47t37-114q0-108-76-199T249-10q-22 0-39 6-11 5-23 15t-19 17l-7 8q-1-1-22-87t-21-87q0-6 8-7t37-3h25q6-7 6-9t-3-18q-3-12-6-15t-13-4h-11q-9 0-34 1t-62 1q-70 0-89-2h-8q-7 7-7 11 2 27 13 35h20q34 1 39 12 3 6 61 239t61 247q1 5 1 14 0 41-25 41-22 0-37-28t-23-61-12-36q-2-2-16-2H29q-6 6-6 9zm155-185q22-76 74-76 30 0 58 23t46 58q18 34 36 108t19 110v6q0 74-61 74-11 0-22-3t-22-9-20-13-17-15-15-15-11-14-8-10l-3-4q0-1-3-14t-11-44-14-52q-26-106-26-110z"/><path id="c" stroke-width="1" d="M931 686q22 0 22-16 0-20-9-38-8-8-20-8h-10q-91 0-111-13-3-2-107-108T591 396q0-2 76-167l76-167h71q32 0 32-18-3-37-17-42-4-2-12-2-4 0-42 1T664 2q-74 0-113-1t-43-1h-1q-23 0-23 18 0 1 4 19 4 19 9 21t37 4l32 1q1 1-46 106t-49 105q-2 0-102-102T268 67l47-5h13l7-1q12-3 12-17-3-34-16-42l-5-2-39 1q-24 1-110 1-82 0-99-1L53 0Q38 6 38 17q0 23 12 40 6 5 28 5 91 0 110 13 6 2 247 249l9 10-5 13q-2 4-66 145l-60 132h-67q-26 0-34 8-2 4-2 10 0 13 5 27t12 15q3 2 20 2 48-2 151-2h74q34 0 55 1t24 1q16 0 21-15 0-4-4-20-5-20-10-23t-35-4-31-1h-4l38-83q37-83 38-83 0-1 10 9t30 30 41 41l79 82q-8 3-47 5h-4q-28 0-28 16 0 20 9 38 5 5 12 8l38-1q24-1 109-1h60q26 0 40 1t18 1z"/><path id="d" stroke-width="1" d="M139-249h-2q-12 0-18 14v486l1 486q10 13 19 13 13 0 20-15v-970q-8-14-18-14h-2z"/><path id="e" stroke-width="1" d="M213-8Q130-8 85 50T40 200v7q0 96 43 221 39 107 106 180 90 94 192 94 29 0 56-9t55-32 45-68 17-107q0-58-15-124t-44-132-70-119-95-86T213-8zm220 570q0 38-14 63t-42 26q-14 0-29-7t-37-25-43-62-39-104q-4-12-12-42t-9-33h193q32 122 32 184zM161 140q0-97 56-97 32 0 63 31 30 29 52 76t46 137q7 26 7 28 0 1-96 1h-97q-1-8-9-41t-14-70-8-65z"/><path id="f" stroke-width="1" d="M60 749l4 1h22l28-24q94-85 137-212t43-264q0-68-10-131T261 12t-37-88-38-67-41-51-32-33-23-19l-4-4H63q-3 0-5 3t-3 9q1 1 11 13Q221-64 221 250T66 725q-10 12-11 13 0 8 5 11z"/><path id="g" stroke-width="1" d="M56 347q0 13 14 20h637q15-8 15-20 0-11-14-19l-318-1H72q-16 5-16 20zm0-194q0 15 16 20h636q14-10 14-20 0-13-15-20H70q-14 7-14 20z"/><path id="h" stroke-width="1" d="M60 948q3 2 605 2h602l58-135q59-138 63-146h-40l-7 14q-21 41-56 78-50 48-111 77t-141 43-151 17-183 4H251l8-11q463-633 465-639 1-2 0-6-3-3-264-302L196-356q0-1 211-1h141q89 0 128-1 136 0 220 5t167 21 141 49 103 87q21 26 41 72h40q0-1-7-21t-25-65-31-84l-58-155-601-1q-602 0-605 2-6 2-6 9 0 2 2 6l533 610q0 1-33 45T452 366 322 544L56 909l-1 15q0 21 5 24z"/><path id="i" stroke-width="1" d="M34 159q0 109 86 196t186 87q56 0 88-24t33-63q0-29-19-49t-48-21q-19 0-30 10t-11 30 11 34 22 21 14 6h1q0 2-6 6t-21 8-34 4q-30 0-57-14-21-9-43-31-44-44-64-124t-21-116q0-46 26-69 22-24 58-24h4q112 0 185 85 9 10 12 10 4 0 13-9t10-14-9-15-29-28-45-30-64-25-80-11q-75 0-121 48T34 159z"/><path id="j" stroke-width="1" d="M213 578l-13-5q-14-5-40-10t-58-7H83v46h19q47 2 87 15t56 24 28 22q2 3 12 3 9 0 17-6V361l1-300q7-7 12-9t24-4 62-2h26V0h-11q-21 3-159 3-136 0-157-3H88v46h64q16 0 25 1t16 3 8 2 6 5 6 4v517z"/><path id="k" stroke-width="1" d="M121 647q0 10 4 23t12 13q1 0 72 5t73 6q12 0 12-8 0-7-50-209-50-198-50-205 19 10 29 19 24 18 69 63t70 61q40 27 76 27 30 0 47-19t18-54q0-25-7-42t-19-25-21-11-18-3q-20 0-32 11t-12 29q0 25 16 41t32 21l16 3q-12 12-24 12h-4q-32-3-63-25t-73-64-66-61q2-1 15-3t24-6 26-8 27-14 22-18 17-26 6-33q0-17-5-41t-6-40q0-40 27-40 48 0 78 119 2 8 20 8h4q16 0 16-9 0-5-3-14Q455-11 378-11q-45 0-73 26t-28 75q0 18 3 31t3 24q0 22-14 38t-35 23-34 11-18 3h-2q-12-42-21-81t-14-58-9-37-7-24-7-13-11-9q-13-9-28-9-17 0-26 10t-9 17q0 10 37 160t73 295l37 145q1 13-7 16t-39 5h-18q-3 0-7 3t-3 7z"/><path id="b" stroke-width="1" d="M94 250q0 69 10 131t23 107 37 88 38 67 42 52 33 34 25 21h17q14 0 14-9 0-3-17-21t-41-53-49-86-42-138-17-193 17-192 41-139 49-86 42-53 17-21q0-9-15-9h-16l-28 24q-94 85-137 212T94 250z"/><path id="m" stroke-width="1" d="M234 637h-8q-25 0-30 1t-5 11q0 27 11 33 2 1 97 1h88q11 0 14-6 211-496 215-509l54 213q53 211 53 225 0 27-64 31-24 0-24 11 0 2 2 12 4 16 6 19t10 4q3 0 31-1t83-2q50 0 76 1t30 1q15 0 15-10 0-22-8-30-2-5-22-5-71-4-89-40L620 7q-2-7-21-7-14 0-17 2-3 3-129 303L326 604l-65-260Q196 88 196 79q5-33 72-33h10q6-5 6-8t-2-19q-4-13-10-19h-13q-31 2-108 2H63Q49 2 46 1q-15 0-15 9 0 4 3 16t5 14q2 6 23 6 68 3 88 39 4 6 71 277l68 272q-2 1-55 3z"/><path id="p" stroke-width="1" d="M58-216q-14 0-24 8t-11 22q0 10 73 302t77 298q13 28 46 28 12-1 20-7t10-12 2-10q0-12-31-134t-33-137q-2-11-2-35v-8q0-73 67-73 9 0 18 1t17 4 15 7 13 7 12 10 11 10 10 12 8 11 9 12l7 10 36 143q36 142 40 151 13 27 43 27 13 0 21-7t11-12 2-10L449 84q-1-5-1-16 0-25 7-33t21-9q9 1 20 9 21 20 41 96 6 20 10 21 2 1 10 1h4q19 0 19-9 0-6-5-27t-20-54-32-50Q510 0 491-8q-8-2-24-2-21 0-38 6t-27 15-17 18-9 15-2 7l-6-6q-6-6-18-15t-26-18-36-16-42-7q-47 0-93 23l-24-97q-21-82-25-95t-12-22q-16-14-34-14z"/><path id="q" stroke-width="1" d="M78 35v25l16 43 43 18q28 0 50-25t23-88q0-35-9-68t-21-57-26-41-24-27-13-9q-4 0-13 9t-9 13q0 4 11 16t25 30 26 50 16 73V9l-1-1q-2-1-5-2t-6-3-9-2-12-1q-27 0-44 17z"/><path id="r" stroke-width="1" d="M184-11q-68 0-110 45T31 147q0 100 73 186t170 97q1 1 140 1h138q1-1 3-2t4-2 3-2 3-3 2-2 2-4 1-4 1-5 1-6q0-44-65-44h-17q-10 0-14 1h-60l5-10q18-38 18-85 0-110-80-192T184-11zm177 289q0 80-85 80-124 0-161-174-1-4-1-6-8-37-8-61 0-50 25-70t57-21q54 0 99 47 29 30 47 80t22 80 5 45z"/><path id="s" stroke-width="1" d="M109 429q-27 0-43 18t-16 44q0 71 53 123t132 52q91 0 152-56t62-145q0-43-20-82t-48-68-80-74q-36-31-100-92l-59-56 76-1q157 0 167 5 7 2 24 89v3h40v-3q-1-3-13-91T421 3V0H50v31q0 7 6 15t30 35q29 32 50 56 9 10 34 37t34 37 29 33 28 34 23 30 21 32 15 29 13 32 7 30 3 33q0 63-34 109t-97 46q-33 0-58-17t-35-33-10-19q0-1 5-1 18 0 37-14t19-46q0-25-16-42t-45-18z"/><path id="o" stroke-width="1" d="M139-249h-2q-12 0-18 14v486l1 486q10 13 19 13 13 0 20-15v-970q-8-14-18-14h-2z"/><path id="n" stroke-width="1" d="M152 251q0 395 236 599h28q6-6 6-9 0-4-19-25t-46-63-55-104-47-167-19-232q0-126 19-231t46-166 55-104 47-64 19-25q0-3-6-9h-28q-29 24-56 53t-61 83-59 116-42 153-18 195z"/><path id="t" stroke-width="1" d="M305 251q0-396-236-600H56q-13 0-17 2t-4 9q2 5 25 31t48 68 52 103 44 163 17 223-17 223-44 163-52 104-48 67-25 32q0 11 15 11h19q128-107 187-284 49-141 49-315z"/><path id="v" stroke-width="1" d="M78 60q0 24 17 42t43 18q24 0 42-16t19-43q0-25-17-43T139 0 96 17 78 60zm447 0q0 24 17 42t43 18q24 0 42-16t19-43q0-25-17-43T586 0t-43 17-18 43zm447 0q0 24 17 42t43 18q24 0 42-16t19-43q0-25-17-43t-43-18-43 17-18 43z"/><path id="u" stroke-width="1" d="M477-343l-6-6h-13q-26 0-91 24t-94 62q-15 18-23 51l-1 161v63q-1 106-5 116-1 1-1 2-23 59-122 98-12 4-14 7t-2 15v11q0 3 2 4t4 3 7 4 10 4 14 7 20 8q62 33 81 80 0 1 1 2 4 11 5 96v83l1 162q3 14 6 22t15 25 28 28 48 27 75 27q18 6 19 6h6q2 0 5 1t5 0h14l6-6v-14q0-10-1-13t-6-6-11-4-22-6-33-16q-51-25-66-61-5-14-5-174v-58q0-34 1-45 0-54-7-79t-32-50q-38-38-114-63l-12-4 15-6q134-47 148-133 1-6 1-161 0-160 5-174 13-32 53-54t78-32q8-2 8-20v-14z"/><path id="w" stroke-width="1" d="M110 849l5 1h10q26 0 90-24t94-62q15-17 23-50l1-162v-63q1-106 5-116 1-1 1-2 14-35 52-61t78-39q8-3 8-20 0-10-1-14t-4-5-16-7-28-11q-71-35-89-84 0-1-1-2-4-11-5-96V12v-63l-1-161q-4-16-9-28t-21-31-47-36-80-31q-36-11-50-11t-17 3-3 17q0 15 2 17t23 8q103 33 118 95 1 6 1 160V57q0 49 4 68t20 42q34 46 125 78l15 6-12 4q-136 45-151 134-1 6-1 161 0 160-5 174-20 50-132 87-7 2-7 19 0 15 5 19z"/></defs><g fill="currentColor" stroke="currentColor" stroke-width="0"><g transform="matrix(1 0 0 -1 153 -779)"><use xlink:href="#a"/><g transform="translate(670)"><use xlink:href="#b"/><use x="389" xlink:href="#c"/><g transform="translate(1509)"><use xlink:href="#d"/><use x="278" xlink:href="#e"/></g><use x="2350" xlink:href="#f"/></g><use x="3688" xlink:href="#g"/><g transform="translate(4744)"><use xlink:href="#h"/><g transform="matrix(.707 0 0 .707 116 -1090)"><use xlink:href="#i"/><use x="433" xlink:href="#g"/><use x="1212" xlink:href="#j"/></g><use x="760" y="1627" transform="scale(.707)" xlink:href="#k"/></g><g transform="translate(6355)"><use xlink:href="#l"/><use x="806" y="-213" transform="scale(.707)" xlink:href="#i"/><use x="977" xlink:href="#m"/><g transform="translate(2032)"><use xlink:href="#n"/><use x="458" xlink:href="#c"/><g transform="translate(1578)"><g transform="translate(0 816)"><use y="-751" xlink:href="#o"/><use y="-884" xlink:href="#o"/></g><g transform="translate(278)"><use xlink:href="#p"/><use x="853" y="-213" transform="scale(.707)" xlink:href="#i"/></g><use x="1288" xlink:href="#q"/><g transform="translate(1733)"><use xlink:href="#r"/><use x="810" y="488" transform="scale(.707)" xlink:href="#s"/><use x="808" y="-211" transform="scale(.707)" xlink:href="#i"/></g></g><use x="4339" y="-1" xlink:href="#t"/></g></g><use x="13185" xlink:href="#q"/><g transform="translate(14047)"><use xlink:href="#h"/><g transform="matrix(.707 0 0 .707 116 -1090)"><use xlink:href="#i"/><use x="433" xlink:href="#g"/><use x="1212" xlink:href="#j"/></g><use x="760" y="1627" transform="scale(.707)" xlink:href="#k"/></g><g transform="translate(15658)"><use xlink:href="#l"/><use x="806" y="-213" transform="scale(.707)" xlink:href="#i"/></g><use x="16913" xlink:href="#g"/><use x="17969" xlink:href="#j"/></g><g transform="matrix(1 0 0 -1 153 1671)"><use xlink:href="#e"/><use x="840" xlink:href="#g"/><g transform="translate(1896)"><use y="-1" xlink:href="#u"/><g transform="translate(583)"><use xlink:href="#l"/><use x="806" y="-213" transform="scale(.707)" xlink:href="#j"/></g><use x="1607" xlink:href="#q"/><use x="2053" xlink:href="#v"/><use x="3392" xlink:href="#q"/><g transform="translate(3837)"><use xlink:href="#l"/><use x="806" y="-213" transform="scale(.707)" xlink:href="#k"/></g><use x="4876" xlink:href="#q"/><g transform="translate(5321)"><use xlink:href="#p"/><use x="853" y="-213" transform="scale(.707)" xlink:href="#j"/></g><use x="6379" xlink:href="#q"/><use x="6824" xlink:href="#v"/><use x="8163" xlink:href="#q"/><g transform="translate(8608)"><use xlink:href="#p"/><use x="853" y="-213" transform="scale(.707)" xlink:href="#k"/></g><use x="9680" xlink:href="#q"/><g transform="translate(10126)"><use xlink:href="#r"/><use x="810" y="488" transform="scale(.707)" xlink:href="#s"/><use x="808" y="-435" transform="scale(.707)" xlink:href="#j"/></g><use x="11152" xlink:href="#q"/><use x="11598" xlink:href="#v"/><use x="12937" xlink:href="#q"/><g transform="translate(13382)"><use xlink:href="#r"/><use x="810" y="488" transform="scale(.707)" xlink:href="#s"/><use x="808" y="-463" transform="scale(.707)" xlink:href="#k"/></g><use x="14422" y="-1" xlink:href="#w"/></g></g></g></svg>